<svg width="129" height="257" viewBox="0 0 129 257" fill="none" xmlns="http://www.w3.org/2000/svg">
<path d="M51.7456 -31.1255V10.1783C51.7456 13.2979 54.2745 15.8267 57.394 15.8267H97.2858C100.405 15.8267 102.934 18.3556 102.934 21.4751V61.3668C102.934 64.4864 105.463 67.0152 108.583 67.0152H148.474C151.594 67.0152 154.123 69.5441 154.123 72.6636V112.555C154.123 115.675 156.652 118.204 159.771 118.204H199.663C202.782 118.204 205.311 120.733 205.311 123.852V163.744C205.311 166.863 207.84 169.392 210.96 169.392H252.263M0.557129 -31.1255V10.1783C0.557129 13.2979 3.086 15.8267 6.20552 15.8267H46.0973C49.2168 15.8267 51.7456 18.3556 51.7456 21.4751V61.3668C51.7456 64.4864 54.2745 67.0152 57.394 67.0152H97.2858C100.405 67.0152 102.934 69.5441 102.934 72.6636V112.555C102.934 115.675 100.405 118.204 97.2858 118.204H57.394C54.2745 118.204 51.7456 115.675 51.7456 112.555V71.9576L51.6962 71.6239C51.3172 69.0656 49.1456 67.1553 46.5598 67.1056L41.861 67.0152H6.20552C3.086 67.0152 0.557129 69.5441 0.557129 72.6636V112.555C0.557129 115.675 3.086 118.204 6.20552 118.204H46.4503L47.7911 118.293C50.0165 118.441 51.7456 120.29 51.7456 122.52V126.853M51.7456 122.44V163.744C51.7456 166.863 54.2745 169.392 57.394 169.392H97.2858C100.405 169.392 102.934 171.921 102.934 175.041V214.932C102.934 218.052 105.463 220.581 108.583 220.581H148.474C151.594 220.581 154.123 223.11 154.123 226.229V266.121C154.123 269.24 156.652 271.769 159.771 271.769H199.663C202.782 271.769 205.311 274.298 205.311 277.418V317.309C205.311 320.429 207.84 322.958 210.96 322.958H252.263" stroke="url(#paint0_linear_194_198)" stroke-width="0.529536"/>
<defs>
<linearGradient id="paint0_linear_194_198" x1="0.557129" y1="-31.1255" x2="246.615" y2="273.358" gradientUnits="userSpaceOnUse">
<stop stop-color="#F7F7F7"/>
<stop offset="0.208333" stop-color="#4285F4"/>
<stop offset="0.526042" stop-color="#01FFF4"/>
<stop offset="0.9375" stop-color="#006FE6"/>
</linearGradient>
</defs>
</svg>
