<svg width="134" height="42" viewBox="0 0 134 42" fill="none" xmlns="http://www.w3.org/2000/svg">
  <g> <!-- Removed clip-path -->
    <path d="M16.7589 15.0038V19.4772H27.5545C27.2679 21.9519 26.408 23.8555 25.0705 25.0928C23.542 26.6157 21.058 28.3289 16.7589 28.3289C10.1669 28.3289 5.00792 22.9989 5.00792 16.4315C5.00792 9.8642 10.0713 4.53419 16.7589 4.53419C20.2937 4.53419 22.9687 5.96187 24.8795 7.77027L28.0322 4.62937C25.3571 2.05954 21.7268 0.060791 16.7589 0.060791C7.68294 0.060791 0.0400391 7.38955 0.0400391 16.4315C0.0400391 25.4735 7.68294 32.8023 16.7589 32.8023C21.6312 32.8023 25.3571 31.1842 28.2232 28.2337C31.1849 25.2831 32.1402 21.0953 32.1402 17.764C32.1402 16.7171 32.0447 15.7653 31.9492 15.0038H16.7589Z" fill="currentColor"/>
    <path d="M45.5152 11.292C39.6875 11.292 34.8152 15.7654 34.8152 21.8568C34.8152 27.9483 39.592 32.4217 45.5152 32.4217C51.4385 32.4217 56.2153 28.0434 56.2153 21.952C56.2153 15.7654 51.4385 11.292 45.5152 11.292ZM45.5152 28.329C42.267 28.329 39.4965 25.664 39.4965 21.952C39.4965 18.1449 42.267 15.575 45.5152 15.575C48.7635 15.575 51.534 18.1449 51.534 21.952C51.534 25.664 48.7635 28.329 45.5152 28.329Z" fill="currentColor"/>
    <path d="M97.7737 13.6715H97.5827C96.5318 12.4341 94.5255 11.292 91.946 11.292C86.596 11.292 82.0103 15.8606 82.0103 21.8568C82.0103 27.7579 86.596 32.4217 91.946 32.4217C94.5255 32.4217 96.5318 31.2795 97.5827 30.0422H97.7737V31.5651C97.7737 35.5626 95.5764 37.7517 92.1371 37.7517C89.271 37.7517 87.5514 35.7529 86.7871 33.9445L82.7745 35.6577C83.921 38.4179 87.0737 41.9395 92.2326 41.9395C97.6782 41.9395 102.359 38.7035 102.359 30.8988V11.8631H97.9648V13.6715H97.7737ZM92.4237 28.329C89.1755 28.329 86.7871 25.5688 86.7871 21.952C86.7871 18.24 89.271 15.575 92.4237 15.575C95.5764 15.575 98.0603 18.3352 98.0603 22.0472C98.1559 25.664 95.6719 28.329 92.4237 28.329Z" fill="currentColor"/>
    <path d="M69.3038 11.292C63.4761 11.292 58.6038 15.7654 58.6038 21.8568C58.6038 27.9483 63.3806 32.4217 69.3038 32.4217C75.2271 32.4217 80.0039 28.0434 80.0039 21.952C80.0039 15.7654 75.2271 11.292 69.3038 11.292ZM69.3038 28.329C66.0556 28.329 63.285 25.664 63.285 21.952C63.285 18.1449 66.0556 15.575 69.3038 15.575C72.5521 15.575 75.3226 18.1449 75.3226 21.952C75.3226 25.664 72.5521 28.329 69.3038 28.329Z" fill="currentColor"/>
    <path d="M105.894 0.536621H110.48V32.5167H105.894V0.536621Z" fill="currentColor"/>
    <path d="M124.619 28.329C122.231 28.329 120.607 27.282 119.46 25.0929L133.695 19.287L133.218 18.0497C132.358 15.6702 129.587 11.292 124.142 11.292C118.696 11.292 114.11 15.575 114.11 21.8568C114.11 27.7579 118.601 32.4217 124.619 32.4217C129.492 32.4217 132.262 29.4711 133.504 27.7579L129.874 25.3784C128.632 27.1868 127.008 28.329 124.619 28.329ZM124.333 15.2895C126.243 15.2895 127.868 16.2413 128.345 17.5738L118.792 21.5713C118.696 17.1931 121.944 15.2895 124.333 15.2895Z" fill="currentColor"/>
  </g>
</svg>
