<?xml version="1.0" encoding="utf-8"?>
<!-- Generator: Adobe Illustrator 25.3.1, SVG Export Plug-In . SVG Version: 6.00 Build 0)  -->
<svg version="1.1" id="Layer_1" xmlns="http://www.w3.org/2000/svg" xmlns:xlink="http://www.w3.org/1999/xlink" x="0px" y="0px"
	 viewBox="0 0 1920 1080" style="enable-background:new 0 0 1920 1080;" xml:space="preserve">
<style type="text/css">
	.st0{clip-path:url(#SVGID_2_);}
	.st1{clip-path:url(#SVGID_4_);}
	.st2{fill:url(#SVGID_5_);}
	.st3{fill:url(#SVGID_6_);}
	.st4{fill:url(#SVGID_7_);}
	.st5{fill:url(#SVGID_8_);}
	.st6{fill:url(#SVGID_9_);}
	.st7{fill:url(#SVGID_10_);}
	.st8{fill:url(#SVGID_11_);}
	.st9{fill:url(#SVGID_12_);}
	.st10{fill:url(#SVGID_13_);}
	.st11{fill:#CA6673;stroke:#CA6673;stroke-miterlimit:10;}
</style>
<g>
	<defs>
		<rect id="SVGID_1_" x="355" y="284.5" width="160" height="160"/>
	</defs>
	<clipPath id="SVGID_2_">
		<use xlink:href="#SVGID_1_"  style="overflow:visible;"/>
	</clipPath>
	<g class="st0">
		<g>
			<defs>
				<path id="SVGID_3_" d="M354.7,364.2c2.6-0.2,5.1-0.4,7.7-0.8s5.1-0.9,7.6-1.5c2.5-0.6,5-1.3,7.4-2.2c2.4-0.8,4.8-1.8,7.2-2.8
					c2.4-1.1,4.7-2.2,6.9-3.5c2.2-1.3,4.4-2.6,6.5-4.1c2.1-1.5,4.2-3,6.2-4.7c2-1.6,3.9-3.4,5.7-5.2c1.8-1.8,3.6-3.7,5.2-5.7
					c1.6-2,3.2-4,4.7-6.1c1.5-2.1,2.8-4.3,4.1-6.6c1.3-2.2,2.4-4.5,3.5-6.9c1.1-2.3,2-4.7,2.8-7.2c0.8-2.4,1.6-4.9,2.2-7.4
					c0.6-2.5,1.1-5,1.5-7.6c0.4-2.5,0.7-5.1,0.8-7.7h0.3c0.2,2.6,0.4,5.1,0.8,7.7s0.9,5.1,1.5,7.6c0.6,2.5,1.3,5,2.2,7.4
					c0.8,2.4,1.8,4.8,2.8,7.2c1.1,2.3,2.2,4.6,3.5,6.9c1.3,2.2,2.6,4.4,4.1,6.5c1.5,2.1,3,4.2,4.7,6.2c1.7,2,3.4,3.9,5.2,5.7
					c1.8,1.8,3.7,3.6,5.7,5.2s4,3.2,6.2,4.7c2.1,1.5,4.3,2.8,6.5,4.1c2.2,1.3,4.5,2.4,6.9,3.5c2.3,1.1,4.7,2,7.2,2.9
					c2.4,0.8,4.9,1.6,7.4,2.2c2.5,0.6,5,1.1,7.6,1.5c2.5,0.4,5.1,0.7,7.7,0.8v0.3c-2.6,0.2-5.1,0.4-7.7,0.8s-5.1,0.9-7.6,1.5
					c-2.5,0.6-5,1.3-7.4,2.2c-2.4,0.8-4.8,1.8-7.2,2.8c-2.3,1.1-4.6,2.2-6.9,3.5c-2.2,1.3-4.4,2.6-6.5,4.1c-2.1,1.5-4.2,3-6.2,4.7
					c-2,1.7-3.9,3.4-5.7,5.2c-1.8,1.8-3.6,3.7-5.2,5.7c-1.7,2-3.2,4-4.7,6.2c-1.5,2.1-2.8,4.3-4.1,6.5c-1.3,2.2-2.4,4.5-3.5,6.9
					c-1.1,2.3-2,4.7-2.8,7.2s-1.6,4.9-2.2,7.4c-0.6,2.5-1.1,5-1.5,7.6c-0.4,2.5-0.7,5.1-0.8,7.7h-0.3c-0.2-2.6-0.4-5.1-0.8-7.7
					c-0.4-2.5-0.9-5.1-1.5-7.6c-0.6-2.5-1.3-5-2.2-7.4c-0.8-2.4-1.8-4.8-2.8-7.2c-1.1-2.3-2.2-4.6-3.5-6.9c-1.3-2.2-2.6-4.4-4.1-6.5
					c-1.5-2.1-3-4.2-4.7-6.2c-1.7-2-3.4-3.9-5.2-5.7c-1.8-1.8-3.7-3.6-5.7-5.2c-2-1.7-4-3.2-6.2-4.7c-2.1-1.5-4.3-2.8-6.5-4.1
					c-2.2-1.3-4.5-2.4-6.9-3.5c-2.3-1.1-4.7-2-7.2-2.9c-2.4-0.8-4.9-1.6-7.4-2.2c-2.5-0.6-5-1.1-7.6-1.5s-5.1-0.7-7.7-0.8V364.2z"/>
			</defs>
			<clipPath id="SVGID_4_">
				<use xlink:href="#SVGID_3_"  style="overflow:visible;"/>
			</clipPath>
			<g class="st1">
				
					<radialGradient id="SVGID_5_" cx="-95.8568" cy="1042.5873" r="576.3966" gradientTransform="matrix(-0.2804 -9.480201e-02 -0.7594 2.2458 1263.9523 -1971.1823)" gradientUnits="userSpaceOnUse">
					<stop  offset="0" style="stop-color:#4285F4"/>
					<stop  offset="1" style="stop-color:#4285F4"/>
				</radialGradient>
				<path class="st2" d="M498.5,493l65-192.1l-192.1-65l-65,192.1L498.5,493z"/>
			</g>
		</g>
	</g>
</g>
<g>
	<g>
		<linearGradient id="SVGID_6_" gradientUnits="userSpaceOnUse" x1="167.6111" y1="579.1672" x2="1671.2629" y2="579.1672">
			<stop  offset="0.3934" style="stop-color:#4285F4"/>
			<stop  offset="0.4935" style="stop-color:#6B7CCD"/>
			<stop  offset="0.6103" style="stop-color:#9472A6"/>
			<stop  offset="0.7167" style="stop-color:#B26C8A"/>
			<stop  offset="0.8079" style="stop-color:#C46779"/>
			<stop  offset="0.8734" style="stop-color:#CA6673"/>
		</linearGradient>
		<path class="st3" d="M167.6,444.5h49.7v113h2.9l96.4-113h60v2.9l-95.3,108.9L386.6,705v2.9h-60.7l-78.4-112.2l-30.2,35V708h-49.7
			V444.5z"/>
		<linearGradient id="SVGID_7_" gradientUnits="userSpaceOnUse" x1="167.6111" y1="579.1672" x2="1671.2629" y2="579.1672">
			<stop  offset="0.3934" style="stop-color:#4285F4"/>
			<stop  offset="0.4935" style="stop-color:#6B7CCD"/>
			<stop  offset="0.6103" style="stop-color:#9472A6"/>
			<stop  offset="0.7167" style="stop-color:#B26C8A"/>
			<stop  offset="0.8079" style="stop-color:#C46779"/>
			<stop  offset="0.8734" style="stop-color:#CA6673"/>
		</linearGradient>
		<path class="st4" d="M410.9,708V471.5h48.2V708H410.9z"/>
		<linearGradient id="SVGID_8_" gradientUnits="userSpaceOnUse" x1="167.6111" y1="579.1672" x2="1671.2629" y2="579.1672">
			<stop  offset="0.3934" style="stop-color:#4285F4"/>
			<stop  offset="0.4935" style="stop-color:#6B7CCD"/>
			<stop  offset="0.6103" style="stop-color:#9472A6"/>
			<stop  offset="0.7167" style="stop-color:#B26C8A"/>
			<stop  offset="0.8079" style="stop-color:#C46779"/>
			<stop  offset="0.8734" style="stop-color:#CA6673"/>
		</linearGradient>
		<path class="st5" d="M521.3,552.1h-31.6v-46h31.6v-61.6h48.2v61.6h44.2v46h-44.2v80.4c0,4.8,0.4,9.2,1.3,13.3
			c0.9,4.1,2.5,7.5,5,10.4c3.4,4.5,8.3,6.8,14.7,6.8c4.2,0,7.5-0.5,9.9-1.4c2.4-1,4.8-2.3,7-3.9l13.6,47.2c-5.6,3-11.7,5.3-18.2,6.8
			c-6.5,1.5-13.7,2.3-21.5,2.3c-9.1,0-17.2-1.6-24.5-4.8c-7.2-3.2-13.3-7.6-18.2-13.2c-11.5-12.6-17.3-30.5-17.3-53.7V552.1z"/>
		<linearGradient id="SVGID_9_" gradientUnits="userSpaceOnUse" x1="167.6111" y1="579.1672" x2="1671.2629" y2="579.1672">
			<stop  offset="0.3934" style="stop-color:#4285F4"/>
			<stop  offset="0.4935" style="stop-color:#6B7CCD"/>
			<stop  offset="0.6103" style="stop-color:#9472A6"/>
			<stop  offset="0.7167" style="stop-color:#B26C8A"/>
			<stop  offset="0.8079" style="stop-color:#C46779"/>
			<stop  offset="0.8734" style="stop-color:#CA6673"/>
		</linearGradient>
		<path class="st6" d="M756.4,688.8h-2.9c-5.6,6.9-12.5,12.8-20.4,17.7c-8,4.9-18.2,7.4-30.7,7.4c-9.3,0-18.1-1.5-26.3-4.6
			c-8.2-3.1-15.4-7.3-21.5-12.7c-6.1-5.4-10.9-11.9-14.4-19.5c-3.4-7.6-5.2-15.9-5.2-25c0-9.3,1.8-17.7,5.5-25.2
			c3.7-7.5,8.8-13.9,15.5-19.3c6.6-5.4,14.4-9.5,23.4-12.3c9-2.8,18.7-4.2,29.3-4.2c11.8,0,21.5,0.9,29.1,2.8
			c7.6,1.8,13.9,3.7,18.8,5.7v-5.5c0-9.6-3.8-17.5-11.4-23.7c-7.6-6.3-17.1-9.4-28.3-9.4c-16.7,0-30.8,7-42.3,21l-35-23.9
			c19.1-24,45.3-36.1,78.4-36.1c28,0,49.3,6.6,64,19.7c14.7,13.1,22.1,32.6,22.1,58.3V708h-47.5V688.8z M756.4,634.7
			c-5.6-2.7-11.5-4.8-17.5-6.4c-6-1.6-12.6-2.4-19.7-2.4c-11.5,0-20.4,2.5-26.7,7.5c-6.3,5-9.4,11.2-9.4,18.6s3,13.2,9,17.7
			c6,4.4,12.9,6.6,20.8,6.6c6.4,0,12.3-1.2,17.7-3.5c5.4-2.3,10-5.4,13.8-9.2c3.8-3.8,6.7-8.2,8.8-13.2
			C755.4,645.4,756.4,640.1,756.4,634.7z"/>
		<linearGradient id="SVGID_10_" gradientUnits="userSpaceOnUse" x1="167.6111" y1="579.1672" x2="1671.2629" y2="579.1672">
			<stop  offset="0.3934" style="stop-color:#4285F4"/>
			<stop  offset="0.4935" style="stop-color:#6B7CCD"/>
			<stop  offset="0.6103" style="stop-color:#9472A6"/>
			<stop  offset="0.7167" style="stop-color:#B26C8A"/>
			<stop  offset="0.8079" style="stop-color:#C46779"/>
			<stop  offset="0.8734" style="stop-color:#CA6673"/>
		</linearGradient>
		<path class="st7" d="M848,444.5h49.7v105.2h110.8V444.5h49.7V708h-49.7V596.8H897.7V708H848V444.5z"/>
		<linearGradient id="SVGID_11_" gradientUnits="userSpaceOnUse" x1="167.6111" y1="579.1672" x2="1671.2629" y2="579.1672">
			<stop  offset="0.3934" style="stop-color:#4285F4"/>
			<stop  offset="0.4935" style="stop-color:#6B7CCD"/>
			<stop  offset="0.6103" style="stop-color:#9472A6"/>
			<stop  offset="0.7167" style="stop-color:#B26C8A"/>
			<stop  offset="0.8079" style="stop-color:#C46779"/>
			<stop  offset="0.8734" style="stop-color:#CA6673"/>
		</linearGradient>
		<path class="st8" d="M1210.9,688.8h-2.9c-5.6,6.9-12.5,12.8-20.4,17.7c-8,4.9-18.2,7.4-30.7,7.4c-9.3,0-18.1-1.5-26.3-4.6
			c-8.2-3.1-15.4-7.3-21.5-12.7c-6.1-5.4-10.9-11.9-14.4-19.5c-3.4-7.6-5.2-15.9-5.2-25c0-9.3,1.8-17.7,5.5-25.2
			c3.7-7.5,8.8-13.9,15.5-19.3c6.6-5.4,14.4-9.5,23.4-12.3c9-2.8,18.7-4.2,29.3-4.2c11.8,0,21.5,0.9,29.1,2.8
			c7.6,1.8,13.9,3.7,18.8,5.7v-5.5c0-9.6-3.8-17.5-11.4-23.7c-7.6-6.3-17.1-9.4-28.3-9.4c-16.7,0-30.8,7-42.3,21l-35-23.9
			c19.1-24,45.3-36.1,78.4-36.1c28,0,49.3,6.6,64,19.7c14.7,13.1,22.1,32.6,22.1,58.3V708h-47.5V688.8z M1210.9,634.7
			c-5.6-2.7-11.5-4.8-17.5-6.4c-6-1.6-12.6-2.4-19.7-2.4c-11.5,0-20.4,2.5-26.7,7.5c-6.3,5-9.4,11.2-9.4,18.6s3,13.2,9,17.7
			c6,4.4,12.9,6.6,20.8,6.6c6.4,0,12.3-1.2,17.7-3.5c5.4-2.3,10-5.4,13.8-9.2c3.8-3.8,6.7-8.2,8.8-13.2
			C1209.8,645.4,1210.9,640.1,1210.9,634.7z"/>
		<linearGradient id="SVGID_12_" gradientUnits="userSpaceOnUse" x1="167.6111" y1="579.1672" x2="1671.2629" y2="579.1672">
			<stop  offset="0.3934" style="stop-color:#4285F4"/>
			<stop  offset="0.4935" style="stop-color:#6B7CCD"/>
			<stop  offset="0.6103" style="stop-color:#9472A6"/>
			<stop  offset="0.7167" style="stop-color:#B26C8A"/>
			<stop  offset="0.8079" style="stop-color:#C46779"/>
			<stop  offset="0.8734" style="stop-color:#CA6673"/>
		</linearGradient>
		<path class="st9" d="M1465.9,662c-7.9,15.2-18.8,27.7-32.9,37.4c-14.1,9.7-31.7,14.5-52.8,14.5c-14,0-26.8-2.4-38.5-7.2
			c-11.7-4.8-21.7-11.5-30.2-20.1c-8.5-8.6-15.1-18.7-19.9-30.4c-4.8-11.6-7.2-24.5-7.2-38.5s2.4-26.9,7.2-38.6
			c4.8-11.8,11.4-21.9,19.9-30.4c8.5-8.5,18.5-15.1,30.2-19.9c11.7-4.8,24.5-7.2,38.5-7.2c20.8,0,38.4,4.8,52.6,14.4
			c14.2,9.6,24.7,22,31.3,37.2l-44.2,18.4c-4.2-8.3-9.5-14.7-16-19c-6.5-4.3-14.7-6.4-24.5-6.4c-6.4,0-12.4,1.2-18,3.7
			c-5.6,2.5-10.6,5.9-14.9,10.3c-4.3,4.4-7.7,9.8-10.1,16.2c-2.5,6.4-3.7,13.5-3.7,21.3c0,7.9,1.2,15,3.7,21.3
			c2.5,6.4,5.8,11.8,10.1,16.2c4.3,4.4,9.3,7.9,14.9,10.3c5.6,2.5,11.6,3.7,18,3.7c10.1,0,18.6-2.3,25.6-6.8
			c7-4.5,12.6-11.1,16.7-19.7L1465.9,662z"/>
		<linearGradient id="SVGID_13_" gradientUnits="userSpaceOnUse" x1="167.6111" y1="579.1672" x2="1671.2629" y2="579.1672">
			<stop  offset="0.3934" style="stop-color:#4285F4"/>
			<stop  offset="0.4935" style="stop-color:#6B7CCD"/>
			<stop  offset="0.6103" style="stop-color:#9472A6"/>
			<stop  offset="0.7167" style="stop-color:#B26C8A"/>
			<stop  offset="0.8079" style="stop-color:#C46779"/>
			<stop  offset="0.8734" style="stop-color:#CA6673"/>
		</linearGradient>
		<path class="st10" d="M1495.4,444.5h48.2V588h2.2l60.4-60.4h59.6v2.9l-67,65.1l72.5,109.3v2.9h-57l-49.3-79.1l-21.3,21V708h-48.2
			V444.5z"/>
	</g>
</g>
<g>
	<g>
		<path class="st11" d="M1690.2,708v-9.2c3-3,5.8-5.8,8.4-8.3c1.1-1.1,2.2-2.2,3.3-3.3c1.1-1.1,2.2-2.2,3.2-3.2c1-1,1.9-1.9,2.6-2.7
			c0.8-0.8,1.4-1.4,1.8-1.9c0.8-1,1.6-1.9,2.2-2.6c0.6-0.8,1.2-1.5,1.5-2.3c0.4-0.7,0.7-1.5,0.9-2.2c0.2-0.7,0.3-1.6,0.3-2.4
			c0-1.7-0.7-3.2-2-4.4c-1.3-1.3-3.2-1.9-5.5-1.9s-4.1,0.7-5.4,2c-1.3,1.3-2.2,2.8-2.6,4.4l-9.2-3.8c0.4-1.4,1.1-2.8,2-4.3
			c0.9-1.5,2.1-2.8,3.5-3.9c1.4-1.2,3.1-2.1,5.1-2.9c2-0.7,4.2-1.1,6.7-1.1c2.7,0,5.1,0.4,7.2,1.2c2.2,0.8,4,1.9,5.5,3.3
			c1.5,1.4,2.6,3,3.5,4.9c0.8,1.9,1.2,3.9,1.2,6.1c0,3.3-0.8,6.3-2.4,9.1c-1.6,2.8-3.6,5.3-5.9,7.7l-6.6,6.6
			c-1.7,1.7-3.7,3.7-5.9,5.9l0.3,0.5h21.4v8.9H1690.2z"/>
		<path class="st11" d="M1751.5,709.2c-3.4,0-6.5-0.7-9.2-2.1c-2.7-1.4-5.1-3.4-7-5.8c-1.9-2.5-3.4-5.4-4.4-8.8
			c-1-3.4-1.5-7-1.5-10.9c0-3.9,0.5-7.5,1.5-10.9c1-3.4,2.5-6.3,4.4-8.8c1.9-2.5,4.3-4.4,7-5.8c2.7-1.4,5.8-2.1,9.2-2.1
			s6.5,0.7,9.2,2.1c2.7,1.4,5.1,3.4,7,5.8s3.4,5.4,4.4,8.8c1,3.4,1.5,7,1.5,10.9c0,3.9-0.5,7.5-1.5,10.9c-1,3.4-2.5,6.3-4.4,8.8
			s-4.3,4.4-7,5.8C1757.9,708.5,1754.9,709.2,1751.5,709.2z M1751.5,699.6c1.9,0,3.5-0.5,5-1.4c1.5-0.9,2.8-2.2,3.8-3.8
			c1.1-1.6,1.9-3.5,2.4-5.7c0.5-2.2,0.8-4.6,0.8-7.2c0-2.6-0.3-5-0.8-7.2c-0.5-2.2-1.3-4.1-2.4-5.7c-1.1-1.6-2.3-2.9-3.8-3.8
			c-1.5-0.9-3.2-1.3-5-1.3c-1.9,0-3.6,0.5-5.1,1.3c-1.5,0.9-2.8,2.2-3.8,3.8c-1,1.6-1.8,3.5-2.4,5.7s-0.8,4.6-0.8,7.2
			c0,2.6,0.3,5,0.8,7.2c0.5,2.2,1.3,4.1,2.4,5.7c1,1.6,2.3,2.9,3.8,3.8C1747.9,699.2,1749.6,699.6,1751.5,699.6z"/>
		<path class="st11" d="M1777.1,708v-9.2c3-3,5.8-5.8,8.4-8.3c1.1-1.1,2.2-2.2,3.3-3.3c1.1-1.1,2.2-2.2,3.2-3.2c1-1,1.9-1.9,2.6-2.7
			c0.8-0.8,1.4-1.4,1.8-1.9c0.8-1,1.6-1.9,2.2-2.6c0.6-0.8,1.2-1.5,1.5-2.3c0.4-0.7,0.7-1.5,0.9-2.2c0.2-0.7,0.3-1.6,0.3-2.4
			c0-1.7-0.7-3.2-2-4.4c-1.3-1.3-3.2-1.9-5.5-1.9s-4.1,0.7-5.4,2c-1.3,1.3-2.2,2.8-2.6,4.4l-9.2-3.8c0.4-1.4,1.1-2.8,2-4.3
			c0.9-1.5,2.1-2.8,3.5-3.9c1.4-1.2,3.1-2.1,5.1-2.9c2-0.7,4.2-1.1,6.7-1.1c2.7,0,5.1,0.4,7.2,1.2c2.2,0.8,4,1.9,5.5,3.3
			c1.5,1.4,2.6,3,3.5,4.9c0.8,1.9,1.2,3.9,1.2,6.1c0,3.3-0.8,6.3-2.4,9.1c-1.6,2.8-3.6,5.3-5.9,7.7l-6.6,6.6
			c-1.7,1.7-3.7,3.7-5.9,5.9l0.3,0.5h21.4v8.9H1777.1z"/>
		<path class="st11" d="M1834.7,709.2c-2,0-4-0.3-6-0.8c-2-0.6-3.8-1.4-5.5-2.6c-1.7-1.2-3.2-2.7-4.4-4.4c-1.3-1.8-2.2-3.9-2.8-6.4
			l9.2-3.5c0.6,2.6,1.7,4.6,3.3,6.2c1.6,1.5,3.7,2.3,6.2,2.3c1.2,0,2.4-0.2,3.4-0.7c1.1-0.4,2-1,2.8-1.8c0.8-0.8,1.4-1.7,1.9-2.7
			c0.4-1.1,0.7-2.2,0.7-3.5c0-1.2-0.2-2.4-0.7-3.4c-0.4-1.1-1-2-1.8-2.8c-0.8-0.8-1.7-1.4-2.7-1.9c-1.1-0.4-2.2-0.7-3.5-0.7
			c-1.6,0-3,0.3-4.2,1c-1.2,0.7-2.3,1.6-3.2,2.6l-9.8-4.5l3.1-26.4h29.7v8.9h-21.3l-2,12.3l0.6,0.2c1-0.9,2.3-1.6,3.8-2.2
			s3.3-0.9,5.4-0.9c2.2,0,4.3,0.4,6.3,1.3c2,0.8,3.8,2,5.3,3.6c1.5,1.5,2.8,3.4,3.7,5.6c0.9,2.2,1.4,4.6,1.4,7.3
			c0,2.6-0.5,5-1.4,7.2c-0.9,2.2-2.2,4.1-3.9,5.7c-1.7,1.6-3.7,2.8-5.9,3.7C1839.9,708.8,1837.4,709.2,1834.7,709.2z"/>
	</g>
</g>
</svg>
