<svg width="206" height="33" viewBox="0 0 206 33" fill="none" xmlns="http://www.w3.org/2000/svg">
<mask id="mask0_4_1643" style="mask-type:luminance" maskUnits="userSpaceOnUse" x="0" y="0" width="33" height="33">
<path d="M32.625 0.351807H0.375V32.6481H32.625V0.351807Z" fill="white"/>
</mask>
<g mask="url(#mask0_4_1643)">
<mask id="mask1_4_1643" style="mask-type:luminance" maskUnits="userSpaceOnUse" x="0" y="0" width="33" height="33">
<path d="M0.314575 16.4394C0.838638 16.399 1.34254 16.3587 1.8666 16.2779C2.39067 16.1972 2.89457 16.0963 3.39848 15.9751C3.90239 15.854 4.40629 15.7127 4.89004 15.5311C5.37379 15.3696 5.85754 15.1677 6.34129 14.9659C6.82504 14.7438 7.28864 14.5218 7.73207 14.2594C8.17551 13.997 8.61895 13.7346 9.04223 13.4318C9.46551 13.129 9.88879 12.8263 10.2919 12.4831C10.695 12.1601 11.078 11.7968 11.4408 11.4335C11.8036 11.0701 12.1664 10.6866 12.4889 10.2829C12.8114 9.87922 13.1339 9.47552 13.4363 9.05163C13.7386 8.62774 14.0007 8.18366 14.2627 7.71941C14.5247 7.27533 14.7464 6.81107 14.9682 6.32663C15.1899 5.86237 15.3713 5.37792 15.5325 4.87329C15.6938 4.38885 15.855 3.88422 15.976 3.37959C16.0969 2.87496 16.1977 2.37033 16.2783 1.84552C16.3589 1.34089 16.4194 0.816075 16.4396 0.29126H16.5C16.5404 0.816075 16.5807 1.3207 16.6613 1.84552C16.7419 2.37033 16.8427 2.87496 16.9636 3.37959C17.0846 3.88422 17.2257 4.38885 17.4071 4.87329C17.5683 5.35774 17.7699 5.84218 17.9714 6.32663C18.1932 6.79089 18.4149 7.25515 18.6769 7.71941C18.9389 8.16348 19.201 8.60755 19.5033 9.03144C19.8057 9.45533 20.108 9.87922 20.4507 10.2829C20.7933 10.6866 21.136 11.0701 21.4988 11.4335C21.8616 11.7968 22.2446 12.1601 22.6477 12.4831C23.0508 12.8061 23.454 13.129 23.8974 13.4318C24.3207 13.7346 24.7641 13.997 25.2075 14.2594C25.651 14.5218 26.1146 14.7438 26.5983 14.9659C27.0619 15.1879 27.5457 15.3696 28.0496 15.5513C28.5333 15.7127 29.0372 15.8742 29.5411 15.9953C30.045 16.1164 30.5489 16.2174 31.073 16.2981C31.5769 16.3789 32.101 16.4394 32.625 16.4596V16.5201C32.101 16.5605 31.5971 16.6009 31.073 16.6816C30.5489 16.7624 30.045 16.8633 29.5411 16.9844C29.0372 17.1055 28.5333 17.2468 28.0496 17.4285C27.5658 17.59 27.0821 17.7918 26.5983 17.9937C26.1347 18.2157 25.6711 18.4377 25.2075 18.7001C24.7641 18.9626 24.3207 19.225 23.8974 19.5277C23.4741 19.8305 23.0508 20.1333 22.6477 20.4764C22.2446 20.8196 21.8616 21.1627 21.4988 21.5261C21.136 21.8894 20.7732 22.2729 20.4507 22.6766C20.108 23.0803 19.8057 23.484 19.5033 23.9281C19.201 24.352 18.9389 24.7961 18.6769 25.2401C18.4149 25.6842 18.1932 26.1485 17.9714 26.6329C17.7497 27.0972 17.5683 27.5816 17.4071 28.0863C17.2458 28.5909 17.0846 29.0753 16.9636 29.58C16.8427 30.0846 16.7419 30.5892 16.6613 31.114C16.5807 31.6187 16.5202 32.1435 16.5 32.6683H16.4396C16.3993 32.1435 16.3589 31.6388 16.2783 31.114C16.1977 30.6094 16.0969 30.0846 15.976 29.58C15.855 29.0753 15.714 28.5707 15.5325 28.0863C15.3713 27.6018 15.1697 27.1174 14.9682 26.6329C14.7464 26.1687 14.5247 25.7044 14.2627 25.2401C14.0007 24.7961 13.7386 24.352 13.4363 23.9281C13.1339 23.5042 12.8316 23.0803 12.4889 22.6766C12.1463 22.2729 11.8036 21.8894 11.4408 21.5261C11.078 21.1627 10.695 20.7994 10.2919 20.4764C9.88879 20.1333 9.48567 19.8305 9.04223 19.5277C8.61895 19.225 8.17551 18.9626 7.73207 18.7001C7.28864 18.4377 6.82504 18.2157 6.34129 17.9937C5.8777 17.7716 5.39395 17.59 4.89004 17.4083C4.40629 17.2468 3.90239 17.0853 3.39848 16.9642C2.89457 16.8431 2.39067 16.7422 1.8666 16.6614C1.34254 16.5807 0.838638 16.5201 0.314575 16.5V16.4394Z" fill="white"/>
</mask>
<g mask="url(#mask1_4_1643)">
<path d="M29.2993 42.438L42.4008 3.66224L3.68066 -9.45813L-9.4209 29.3176L29.2993 42.438Z" fill="white"/>
</g>
</g>
<path d="M48.1248 25.5L42.2068 18.658V25.5H39.6988V10.21H42.2068V17.184L48.1468 10.21H51.2928L44.6488 17.866L51.4028 25.5H48.1248ZM54.8967 11.772C54.442 11.772 54.0607 11.618 53.7527 11.31C53.4447 11.002 53.2907 10.6207 53.2907 10.166C53.2907 9.71133 53.4447 9.33 53.7527 9.022C54.0607 8.714 54.442 8.56 54.8967 8.56C55.3367 8.56 55.7107 8.714 56.0187 9.022C56.3267 9.33 56.4807 9.71133 56.4807 10.166C56.4807 10.6207 56.3267 11.002 56.0187 11.31C55.7107 11.618 55.3367 11.772 54.8967 11.772ZM56.1287 13.378V25.5H53.6207V13.378H56.1287ZM62.3475 15.424V22.134C62.3475 22.5887 62.4502 22.9187 62.6555 23.124C62.8755 23.3147 63.2422 23.41 63.7555 23.41H65.2955V25.5H63.3155C62.1862 25.5 61.3208 25.236 60.7195 24.708C60.1182 24.18 59.8175 23.322 59.8175 22.134V15.424H58.3875V13.378H59.8175V10.364H62.3475V13.378H65.2955V15.424H62.3475ZM66.771 19.384C66.771 18.1667 67.0204 17.0887 67.519 16.15C68.0324 15.2113 68.7217 14.4853 69.587 13.972C70.467 13.444 71.435 13.18 72.491 13.18C73.4444 13.18 74.273 13.3707 74.977 13.752C75.6957 14.1187 76.2677 14.5807 76.693 15.138V13.378H79.223V25.5H76.693V23.696C76.2677 24.268 75.6884 24.7447 74.955 25.126C74.2217 25.5073 73.3857 25.698 72.447 25.698C71.4057 25.698 70.4524 25.434 69.587 24.906C68.7217 24.3633 68.0324 23.6153 67.519 22.662C67.0204 21.694 66.771 20.6013 66.771 19.384ZM76.693 19.428C76.693 18.592 76.517 17.866 76.165 17.25C75.8277 16.634 75.3804 16.1647 74.823 15.842C74.2657 15.5193 73.6644 15.358 73.019 15.358C72.3737 15.358 71.7724 15.5193 71.215 15.842C70.6577 16.15 70.203 16.612 69.851 17.228C69.5137 17.8293 69.345 18.548 69.345 19.384C69.345 20.22 69.5137 20.9533 69.851 21.584C70.203 22.2147 70.6577 22.6987 71.215 23.036C71.787 23.3587 72.3884 23.52 73.019 23.52C73.6644 23.52 74.2657 23.3587 74.823 23.036C75.3804 22.7133 75.8277 22.244 76.165 21.628C76.517 20.9973 76.693 20.264 76.693 19.428ZM94.7272 10.21V25.5H92.2192V18.812H85.0252V25.5H82.5172V10.21H85.0252V16.766H92.2192V10.21H94.7272ZM97.1929 19.384C97.1929 18.1667 97.4422 17.0887 97.9409 16.15C98.4542 15.2113 99.1436 14.4853 100.009 13.972C100.889 13.444 101.857 13.18 102.913 13.18C103.866 13.18 104.695 13.3707 105.399 13.752C106.118 14.1187 106.69 14.5807 107.115 15.138V13.378H109.645V25.5H107.115V23.696C106.69 24.268 106.11 24.7447 105.377 25.126C104.644 25.5073 103.808 25.698 102.869 25.698C101.828 25.698 100.874 25.434 100.009 24.906C99.1436 24.3633 98.4542 23.6153 97.9409 22.662C97.4422 21.694 97.1929 20.6013 97.1929 19.384ZM107.115 19.428C107.115 18.592 106.939 17.866 106.587 17.25C106.25 16.634 105.802 16.1647 105.245 15.842C104.688 15.5193 104.086 15.358 103.441 15.358C102.796 15.358 102.194 15.5193 101.637 15.842C101.08 16.15 100.625 16.612 100.273 17.228C99.9356 17.8293 99.7669 18.548 99.7669 19.384C99.7669 20.22 99.9356 20.9533 100.273 21.584C100.625 22.2147 101.08 22.6987 101.637 23.036C102.209 23.3587 102.81 23.52 103.441 23.52C104.086 23.52 104.688 23.3587 105.245 23.036C105.802 22.7133 106.25 22.244 106.587 21.628C106.939 20.9973 107.115 20.264 107.115 19.428ZM112.103 19.428C112.103 18.1813 112.352 17.0887 112.851 16.15C113.364 15.1967 114.068 14.4633 114.963 13.95C115.858 13.4367 116.884 13.18 118.043 13.18C119.51 13.18 120.72 13.532 121.673 14.236C122.641 14.9253 123.294 15.9153 123.631 17.206H120.925C120.705 16.6047 120.353 16.1353 119.869 15.798C119.385 15.4607 118.776 15.292 118.043 15.292C117.016 15.292 116.195 15.6587 115.579 16.392C114.978 17.1107 114.677 18.1227 114.677 19.428C114.677 20.7333 114.978 21.7527 115.579 22.486C116.195 23.2193 117.016 23.586 118.043 23.586C119.495 23.586 120.456 22.948 120.925 21.672H123.631C123.279 22.904 122.619 23.8867 121.651 24.62C120.683 25.3387 119.48 25.698 118.043 25.698C116.884 25.698 115.858 25.4413 114.963 24.928C114.068 24.4 113.364 23.6667 112.851 22.728C112.352 21.7747 112.103 20.6747 112.103 19.428ZM130.926 19.45L136.514 25.5H133.126L128.638 20.286V25.5H126.13V9.22H128.638V18.68L133.038 13.378H136.514L130.926 19.45ZM139.368 22.09C140.776 20.8727 141.883 19.8753 142.69 19.098C143.511 18.306 144.193 17.4847 144.736 16.634C145.279 15.7833 145.55 14.9327 145.55 14.082C145.55 13.202 145.337 12.5127 144.912 12.014C144.501 11.5153 143.849 11.266 142.954 11.266C142.089 11.266 141.414 11.5447 140.93 12.102C140.461 12.6447 140.211 13.378 140.182 14.302H137.762C137.806 12.63 138.305 11.354 139.258 10.474C140.226 9.57933 141.451 9.132 142.932 9.132C144.531 9.132 145.777 9.572 146.672 10.452C147.581 11.332 148.036 12.5053 148.036 13.972C148.036 15.028 147.765 16.0473 147.222 17.03C146.694 17.998 146.056 18.8707 145.308 19.648C144.575 20.4107 143.636 21.298 142.492 22.31L141.502 23.19H148.476V25.28H137.784V23.454L139.368 22.09ZM150.679 17.272C150.679 14.7347 151.105 12.7547 151.955 11.332C152.821 9.89467 154.302 9.176 156.399 9.176C158.497 9.176 159.971 9.89467 160.821 11.332C161.687 12.7547 162.119 14.7347 162.119 17.272C162.119 19.8387 161.687 21.848 160.821 23.3C159.971 24.7373 158.497 25.456 156.399 25.456C154.302 25.456 152.821 24.7373 151.955 23.3C151.105 21.848 150.679 19.8387 150.679 17.272ZM159.655 17.272C159.655 16.084 159.575 15.0793 159.413 14.258C159.267 13.4367 158.959 12.7693 158.489 12.256C158.02 11.728 157.323 11.464 156.399 11.464C155.475 11.464 154.779 11.728 154.309 12.256C153.84 12.7693 153.525 13.4367 153.363 14.258C153.217 15.0793 153.143 16.084 153.143 17.272C153.143 18.504 153.217 19.538 153.363 20.374C153.51 21.21 153.818 21.8847 154.287 22.398C154.771 22.9113 155.475 23.168 156.399 23.168C157.323 23.168 158.02 22.9113 158.489 22.398C158.973 21.8847 159.289 21.21 159.435 20.374C159.582 19.538 159.655 18.504 159.655 17.272ZM166.159 22.09C167.567 20.8727 168.674 19.8753 169.481 19.098C170.302 18.306 170.984 17.4847 171.527 16.634C172.07 15.7833 172.341 14.9327 172.341 14.082C172.341 13.202 172.128 12.5127 171.703 12.014C171.292 11.5153 170.64 11.266 169.745 11.266C168.88 11.266 168.205 11.5447 167.721 12.102C167.252 12.6447 167.002 13.378 166.973 14.302H164.553C164.597 12.63 165.096 11.354 166.049 10.474C167.017 9.57933 168.242 9.132 169.723 9.132C171.322 9.132 172.568 9.572 173.463 10.452C174.372 11.332 174.827 12.5053 174.827 13.972C174.827 15.028 174.556 16.0473 174.013 17.03C173.485 17.998 172.847 18.8707 172.099 19.648C171.366 20.4107 170.427 21.298 169.283 22.31L168.293 23.19H175.267V25.28H164.575V23.454L166.159 22.09ZM187.81 11.618H180.44V15.996C180.748 15.5853 181.203 15.2407 181.804 14.962C182.42 14.6833 183.073 14.544 183.762 14.544C184.994 14.544 185.992 14.808 186.754 15.336C187.532 15.864 188.082 16.5313 188.404 17.338C188.742 18.1447 188.91 18.9953 188.91 19.89C188.91 20.9753 188.698 21.9433 188.272 22.794C187.862 23.63 187.238 24.29 186.402 24.774C185.581 25.258 184.569 25.5 183.366 25.5C181.768 25.5 180.484 25.104 179.516 24.312C178.548 23.52 177.969 22.4713 177.778 21.166H180.22C180.382 21.8553 180.741 22.4053 181.298 22.816C181.856 23.212 182.552 23.41 183.388 23.41C184.43 23.41 185.207 23.0947 185.72 22.464C186.248 21.8333 186.512 20.9973 186.512 19.956C186.512 18.9 186.248 18.0933 185.72 17.536C185.192 16.964 184.415 16.678 183.388 16.678C182.67 16.678 182.061 16.8613 181.562 17.228C181.078 17.58 180.726 18.064 180.506 18.68H178.13V9.418H187.81V11.618Z" fill="white"/>
</svg>
