<svg width="134" height="34" viewBox="0 0 134 34" fill="none" xmlns="http://www.w3.org/2000/svg">
<g clip-path="url(#clip0_16_1379)">
<path d="M52.9275 12.4356H57.1491V25.7144H52.9275V12.4356Z" fill="currentColor"/>
<mask id="mask0_16_1379" style="mask-type:luminance" maskUnits="userSpaceOnUse" x="0" y="0" width="134" height="34">
<path d="M0.275879 0.645821H133.931V33.3542H0.275879V0.645821Z" fill="white"/>
</mask>
<g mask="url(#mask0_16_1379)">
<path d="M58.0305 12.4359H62.0966V14.2513H62.1742C63.1584 12.8249 64.4274 12.0469 66.2663 12.0469C69.1669 12.0469 70.8762 14.1217 70.8762 17.0783V25.7146H66.6547V17.9342C66.6547 16.5336 65.9555 15.5739 64.5829 15.5739C63.1844 15.5739 62.252 16.7411 62.252 18.375V25.7146H58.0305V12.4359Z" fill="currentColor"/>
<path d="M57.5704 8.88326C57.5704 7.48268 56.4366 6.34744 55.0381 6.34744C53.6396 6.34744 52.5059 7.48268 52.5059 8.88326C52.5059 10.2837 53.6396 11.4189 55.0381 11.4189C56.4366 11.4189 57.5704 10.2837 57.5704 8.88326Z" fill="currentColor"/>
<path d="M100.566 12.244C100.446 12.2331 100.308 12.2283 100.146 12.2283C98.5405 12.2283 97.4529 12.9285 96.5204 14.5105H96.4428V12.4358H92.4026V25.7144H96.624V19.7494C96.624 16.9855 98.1525 15.7048 100.566 15.9283V12.244Z" fill="currentColor"/>
<path d="M121.283 17.3374C119.599 17.0262 118.097 16.8966 118.097 15.963C118.097 15.133 118.9 14.744 119.936 14.744C121.102 14.744 121.905 15.107 122.06 16.3001H125.945C125.738 13.6807 123.717 12.0467 119.962 12.0467C116.828 12.0467 114.238 13.4991 114.238 16.3001C114.238 19.4121 116.699 20.0346 119.004 20.4237C120.765 20.735 122.371 20.8646 122.371 22.0576C122.371 22.9135 121.568 23.3803 120.299 23.3803C119.026 23.3803 118.184 22.8409 117.925 21.7465H113.903C114.199 24.4762 116.592 26.1294 120.325 26.1294C123.795 26.1294 126.359 24.6252 126.359 21.7206C126.359 18.3229 123.614 17.7265 121.283 17.3374Z" fill="currentColor"/>
<path d="M107.115 15.0551C108.488 15.0551 109.472 16.0666 109.627 17.6488H104.396C104.681 16.0666 105.509 15.0551 107.115 15.0551ZM107.348 23.069C105.613 23.069 104.629 21.9539 104.37 20.1643H113.901C113.926 17.4672 113.15 15.1589 111.57 13.7066C110.43 12.6692 108.928 12.0467 107.037 12.0467C102.997 12.0467 100.226 15.081 100.226 19.0492C100.226 23.069 102.92 26.1035 107.296 26.1035C108.98 26.1035 110.327 25.6626 111.44 24.8845C112.606 24.0806 113.383 22.9394 113.667 21.7465H109.55C109.187 22.5764 108.462 23.069 107.348 23.069Z" fill="currentColor"/>
<path d="M133.794 22.5833C133.598 22.591 133.336 22.6024 133.094 22.6024C132.188 22.6024 131.618 22.343 131.618 21.3056V15.0812H133.794V12.4359H131.618V8.23439H127.5V12.4359H126.205V15.0812H127.5V22.2133C127.5 25.0663 129.261 25.8701 131.722 25.8701C132.661 25.8701 133.37 25.7997 133.794 25.7169V22.5833Z" fill="currentColor"/>
<path d="M78.4149 22.5893C78.2465 22.5959 78.0521 22.6024 77.8705 22.6024C76.9642 22.6024 76.3943 22.343 76.3943 21.3056V15.0812H78.4149V12.4358H76.3943V8.23439H72.2765V12.4358H70.9033V15.0812H72.2765V22.2133C72.2765 25.0663 74.0375 25.8701 76.4979 25.8701C77.3304 25.8701 77.9822 25.8146 78.4149 25.7444V22.5893Z" fill="currentColor"/>
<path d="M87.6102 17.6488C87.4548 16.0667 86.4705 15.0551 85.0979 15.0551C83.4922 15.0551 82.6635 16.0667 82.3786 17.6488H87.6102ZM78.209 19.0492C78.209 15.0812 80.9801 12.0469 85.0203 12.0469C86.9108 12.0469 88.413 12.6692 89.5526 13.7066C91.1324 15.159 91.9092 17.4672 91.8834 20.1644H82.3528C82.6116 21.9539 83.5958 23.0691 85.3311 23.0691C86.4447 23.0691 87.1699 22.5764 87.5323 21.7465H91.6503C91.3653 22.9394 90.5885 24.0806 89.423 24.8847C88.3094 25.6626 86.9627 26.1035 85.2793 26.1035C80.9023 26.1035 78.209 23.0691 78.209 19.0492Z" fill="currentColor"/>
<path d="M45.5961 15.8853C47.2536 15.8853 48.1859 14.8998 48.1859 13.4213C48.1859 11.9432 47.2276 11.0354 45.5961 11.0354H42.3585V15.8853H45.5961ZM38.0847 7.17114H45.4155C47.6686 7.17114 49.3261 7.79352 50.4657 8.88284C51.6571 9.99794 52.3304 11.5801 52.3304 13.4474C52.3304 17.0004 49.87 19.5162 46.0629 19.5162H42.3585V25.7146H38.0847V7.17114Z" fill="currentColor"/>
<path d="M16.3514 1.03936C7.54894 1.03936 0.413086 8.18524 0.413086 17C0.413086 23.7618 4.61414 29.5421 10.5431 31.8677C10.4038 30.6049 10.2778 28.6628 10.5983 27.2842C10.888 26.0385 12.4673 19.3507 12.4673 19.3507C12.4673 19.3507 11.9905 18.3946 11.9905 16.9811C11.9905 14.7617 13.2751 13.1048 14.8745 13.1048C16.2343 13.1048 16.8911 14.1272 16.8911 15.3531C16.8911 16.7225 16.0204 18.7699 15.5711 20.6673C15.1956 22.2559 16.3667 23.5514 17.9313 23.5514C20.7641 23.5514 22.9416 20.5603 22.9416 16.2426C22.9416 12.4211 20.1995 9.74922 16.2841 9.74922C11.7491 9.74922 9.08722 13.1555 9.08722 16.6757C9.08722 18.0475 9.61491 19.5184 10.2734 20.3181C10.4036 20.4761 10.4227 20.6146 10.3839 20.7759C10.2629 21.28 9.99406 22.3641 9.94128 22.586C9.87177 22.8781 9.71029 22.9401 9.40823 22.7994C7.41764 21.8715 6.17306 18.957 6.17306 16.6162C6.17306 11.5814 9.82604 6.95762 16.7041 6.95762C22.2331 6.95762 26.5298 10.903 26.5298 16.1758C26.5298 21.6764 23.0664 26.1033 18.2593 26.1033C16.6442 26.1033 15.1259 25.2631 14.6061 24.2706C14.6061 24.2706 13.807 27.318 13.6132 28.0648C13.2534 29.4511 12.282 31.1888 11.6323 32.249C13.1235 32.7113 14.7083 32.9607 16.3514 32.9607C25.1539 32.9607 32.2898 25.8148 32.2898 17C32.2898 8.18524 25.1539 1.03936 16.3514 1.03936Z" fill="currentColor"/>
</g>
</g>
<defs>
<clipPath id="clip0_16_1379">
<rect width="133.655" height="32.7084" fill="white" transform="translate(0.275879 0.645752)"/>
</clipPath>
</defs>
</svg>
