<svg width="135" height="64" viewBox="0 0 135 64" fill="none" xmlns="http://www.w3.org/2000/svg">
<path d="M111.417 28.542C112.724 28.542 113.784 27.4833 113.784 26.1774C113.784 24.8714 112.724 23.8127 111.417 23.8127C110.11 23.8127 109.05 24.8714 109.05 26.1774C109.05 27.4833 110.11 28.542 111.417 28.542Z" fill="currentColor"/>
<path d="M77.6124 36.2605C78.7734 36.2605 79.4432 35.3905 79.3986 34.5428C79.3763 34.0967 79.3316 33.8067 79.287 33.5836C78.5725 30.5051 76.0717 28.2297 73.1021 28.2297C69.5743 28.2297 66.7163 31.4197 66.7163 35.3459C66.7163 39.2721 69.5743 42.4621 73.1021 42.4621C75.3126 42.4621 76.8979 41.659 78.0366 40.3875C78.5948 39.7628 78.4831 38.8036 77.8133 38.3351C77.2551 37.9559 76.5629 38.0898 76.0494 38.5136C75.5582 38.9374 74.6204 39.7851 73.1021 39.7851C71.3159 39.7851 69.7976 38.2459 69.4626 36.2159H77.6124V36.2605ZM73.0798 30.929C74.6874 30.929 76.0717 32.1782 76.5853 33.8959H69.5743C70.0878 32.1559 71.4722 30.929 73.0798 30.929Z" fill="currentColor"/>
<path d="M66.8503 29.6351C66.8503 28.9659 66.3591 28.4305 65.7339 28.319C63.7913 28.029 61.9605 28.7428 60.911 30.059V29.8805C60.911 29.0551 60.2412 28.5421 59.5714 28.5421C58.8345 28.5421 58.2317 29.1444 58.2317 29.8805V40.8113C58.2317 41.5252 58.7676 42.1498 59.4821 42.1944C60.2635 42.239 60.911 41.6367 60.911 40.8559V35.2121C60.911 32.7136 62.7866 30.6613 65.3766 30.9513C65.466 30.9513 65.5553 30.9513 65.6446 30.9513C66.3144 30.9067 66.8503 30.3267 66.8503 29.6351Z" fill="currentColor"/>
<path d="M112.757 31.0628C112.757 30.3267 112.154 29.7244 111.417 29.7244C110.68 29.7244 110.077 30.3267 110.077 31.0628C110.077 31.1074 110.077 40.4321 110.077 40.8559C110.077 41.5921 110.68 42.1944 111.417 42.1944C112.154 42.1944 112.757 41.5921 112.757 40.8559C112.757 40.4544 112.757 31.1298 112.757 31.0628Z" fill="currentColor"/>
<path d="M92.84 23.6566C92.84 22.9204 92.2371 22.3181 91.5003 22.3181C90.7635 22.3181 90.1606 22.9204 90.1606 23.6566V29.6127C89.2452 28.6981 88.1064 28.252 86.7444 28.252C83.2166 28.252 80.3586 31.442 80.3586 35.3681C80.3586 39.2943 83.2166 42.4843 86.7444 42.4843C88.1064 42.4843 89.2675 42.0158 90.1829 41.1012C90.2946 41.7258 90.8528 42.1943 91.5003 42.1943C92.2371 42.1943 92.84 41.592 92.84 40.8558V23.6566ZM86.7668 39.8297C84.7126 39.8297 83.0603 37.8443 83.0603 35.3681C83.0603 32.9143 84.7126 30.9066 86.7668 30.9066C88.8209 30.9066 90.4732 32.892 90.4732 35.3681C90.4732 37.8443 88.7986 39.8297 86.7668 39.8297Z" fill="currentColor"/>
<path d="M106.817 23.6566C106.817 22.9204 106.214 22.3181 105.478 22.3181C104.741 22.3181 104.138 22.9204 104.138 23.6566V29.6127C103.222 28.6981 102.084 28.252 100.722 28.252C97.1939 28.252 94.3359 31.442 94.3359 35.3681C94.3359 39.2943 97.1939 42.4843 100.722 42.4843C102.084 42.4843 103.245 42.0158 104.16 41.1012C104.272 41.7258 104.83 42.1943 105.478 42.1943C106.214 42.1943 106.817 41.592 106.817 40.8558V23.6566ZM100.722 39.8297C98.6676 39.8297 97.0153 37.8443 97.0153 35.3681C97.0153 32.9143 98.6676 30.9066 100.722 30.9066C102.776 30.9066 104.428 32.892 104.428 35.3681C104.428 37.8443 102.776 39.8297 100.722 39.8297Z" fill="currentColor"/>
<path d="M119.544 40.8782V30.9289H120.728C121.353 30.9289 121.911 30.4604 121.956 29.8135C122 29.122 121.442 28.542 120.772 28.542H119.544V26.6681C119.544 25.9543 119.008 25.3297 118.294 25.285C117.513 25.2404 116.865 25.8427 116.865 26.6235V28.5643H115.749C115.123 28.5643 114.565 29.0327 114.521 29.6797C114.476 30.3712 115.034 30.9512 115.704 30.9512H116.843V40.9005C116.843 41.6366 117.446 42.2389 118.182 42.2389C118.964 42.1943 119.544 41.6143 119.544 40.8782Z" fill="currentColor"/>
<path d="M32.0187 50.6937C42.3524 50.6937 50.7295 42.3241 50.7295 31.9998C50.7295 21.6754 42.3524 13.3059 32.0187 13.3059C21.685 13.3059 13.3079 21.6754 13.3079 31.9998C13.3079 42.3241 21.685 50.6937 32.0187 50.6937Z" fill="currentColor"/>
<path d="M44.5 31.9996C44.5 30.4827 43.272 29.2781 41.776 29.2781C41.0392 29.2781 40.3694 29.5681 39.8782 30.0365C38.0026 28.6981 35.4349 27.8281 32.5769 27.7165L33.8273 21.8719L37.891 22.7419C37.9356 23.7681 38.7841 24.5935 39.8335 24.5935C40.9052 24.5935 41.776 23.7235 41.776 22.6527C41.776 21.5819 40.9052 20.7119 39.8335 20.7119C39.0744 20.7119 38.4045 21.1581 38.0919 21.805L33.5593 20.8458C33.4254 20.8235 33.2914 20.8458 33.2021 20.9127C33.0905 20.9796 33.0235 21.0911 33.0011 21.225L31.6168 27.7389C28.7142 27.8281 26.1018 28.6981 24.2039 30.0589C23.7127 29.5904 23.0429 29.3004 22.306 29.3004C20.7877 29.3004 19.582 30.5273 19.582 32.0219C19.582 33.1373 20.2519 34.0742 21.1896 34.4981C21.145 34.7658 21.1227 35.0335 21.1227 35.3235C21.1227 39.5173 26.0125 42.9304 32.041 42.9304C38.0696 42.9304 42.9594 39.5396 42.9594 35.3235C42.9594 35.0558 42.9371 34.7658 42.8924 34.4981C43.8302 34.0742 44.5 33.115 44.5 31.9996ZM25.7892 33.9404C25.7892 32.8696 26.66 31.9996 27.7317 31.9996C28.8035 31.9996 29.6743 32.8696 29.6743 33.9404C29.6743 35.0112 28.8035 35.8812 27.7317 35.8812C26.66 35.9035 25.7892 35.0112 25.7892 33.9404ZM36.6629 39.0935C35.3233 40.432 32.7779 40.5212 32.041 40.5212C31.2819 40.5212 28.7365 40.4096 27.4191 39.0935C27.2182 38.8927 27.2182 38.5804 27.4191 38.3796C27.6201 38.1789 27.9327 38.1789 28.1336 38.3796C28.9821 39.2273 30.7683 39.5173 32.041 39.5173C33.3137 39.5173 35.1223 39.2273 35.9484 38.3796C36.1494 38.1789 36.462 38.1789 36.6629 38.3796C36.8416 38.5804 36.8416 38.8927 36.6629 39.0935ZM36.3057 35.9035C35.2339 35.9035 34.3631 35.0335 34.3631 33.9627C34.3631 32.8919 35.2339 32.0219 36.3057 32.0219C37.3774 32.0219 38.2482 32.8919 38.2482 33.9627C38.2482 35.0112 37.3774 35.9035 36.3057 35.9035Z" fill="#E6E6E6"/>
</svg>
