<svg width="135" height="42" viewBox="0 0 135 42" fill="none" xmlns="http://www.w3.org/2000/svg">
<path d="M32.9916 18.7571C26.6277 14.9737 16.1306 14.6258 10.0554 16.4717C9.07983 16.7679 8.04823 16.2165 7.75262 15.2399C7.45701 14.2628 8.00716 13.2307 8.98341 12.9338C15.9573 10.8144 27.5502 11.2239 34.8764 15.5776C35.7541 16.099 36.042 17.2335 35.5217 18.1108C35.0011 18.9891 33.8669 19.2786 32.9916 18.7571ZM32.7832 24.3611C32.3369 25.0864 31.3896 25.3137 30.6661 24.8686C25.3605 21.6037 17.2701 20.6579 10.9932 22.5652C10.1792 22.8115 9.31945 22.3521 9.07229 21.5387C8.82694 20.7238 9.28612 19.8646 10.0986 19.6168C17.2692 17.4386 26.183 18.4936 32.2768 22.2427C33.0003 22.6887 33.228 23.6376 32.7832 24.3611ZM30.3674 29.7429C30.0128 30.3252 29.2551 30.5079 28.6757 30.1529C24.0394 27.3163 18.2041 26.6755 11.3319 28.2471C10.6696 28.3991 10.0097 27.9835 9.85855 27.3207C9.70689 26.6578 10.1203 25.9972 10.7841 25.8459C18.3045 24.1248 24.7556 24.8656 29.9593 28.0489C30.5395 28.4036 30.7222 29.1624 30.3674 29.7429ZM21.3133 1.2355C10.4099 1.2355 1.57056 10.0842 1.57056 20.9997C1.57056 31.9162 10.4099 40.7646 21.3133 40.7646C32.2171 40.7646 41.056 31.9162 41.056 20.9997C41.056 10.0842 32.2171 1.2355 21.3133 1.2355Z" fill="currentColor"/>
<path d="M55.2836 19.4817C51.8749 18.6679 51.2678 18.0966 51.2678 16.8968C51.2678 15.7628 52.3343 15 53.92 15C55.4571 15 56.981 15.5794 58.5792 16.7722C58.6275 16.8083 58.6881 16.8227 58.7478 16.8133C58.8074 16.8043 58.86 16.7717 58.8951 16.7222L60.5595 14.3734C60.6279 14.2768 60.6093 14.1432 60.5171 14.0694C58.6153 12.5416 56.4737 11.7989 53.9705 11.7989C50.2899 11.7989 47.719 14.0099 47.719 17.1739C47.719 20.5667 49.9367 21.7679 53.7691 22.6952C57.031 23.4474 57.5815 24.0774 57.5815 25.2041C57.5815 26.4523 56.4683 27.2284 54.6768 27.2284C52.6873 27.2284 51.0641 26.5574 49.2486 24.9834C49.2035 24.9447 49.1418 24.9268 49.0847 24.93C49.0248 24.935 48.9699 24.9628 48.9317 25.0088L47.0655 27.2323C46.9872 27.3247 46.9971 27.4625 47.0874 27.5422C49.2 29.4301 51.7978 30.4275 54.6013 30.4275C58.5674 30.4275 61.1303 28.2578 61.1303 24.9001C61.1303 22.0623 59.4366 20.4929 55.2836 19.4817Z" fill="currentColor"/>
<path d="M72.9822 23.285C72.9822 25.6813 71.5078 27.3534 69.3966 27.3534C67.3095 27.3534 65.7352 25.6053 65.7352 23.285C65.7352 20.965 67.3095 19.2167 69.3966 19.2167C71.4739 19.2167 72.9822 20.9273 72.9822 23.285ZM70.1032 16.1161C68.3841 16.1161 66.974 16.7939 65.8113 18.1829V16.6195C65.8113 16.4961 65.7114 16.3955 65.5881 16.3955H62.536C62.4127 16.3955 62.313 16.4961 62.313 16.6195V33.9907C62.313 34.1141 62.4127 34.2146 62.536 34.2146H65.5881C65.7114 34.2146 65.8113 34.1141 65.8113 33.9907V28.5076C66.9743 29.8141 68.3846 30.4523 70.1032 30.4523C73.2974 30.4523 76.531 27.9906 76.531 23.285C76.531 18.5783 73.2974 16.1161 70.1032 16.1161Z" fill="currentColor"/>
<path d="M84.8198 27.3785C82.6318 27.3785 80.9822 25.6185 80.9822 23.285C80.9822 20.9417 82.5747 19.2412 84.7693 19.2412C86.9715 19.2412 88.6321 21.0011 88.6321 23.3361C88.6321 25.6792 87.0288 27.3785 84.8198 27.3785ZM84.8198 16.1161C80.7061 16.1161 77.4834 19.2872 77.4834 23.3361C77.4834 27.3411 80.684 30.479 84.7693 30.479C88.8976 30.479 92.1302 27.3185 92.1302 23.285C92.1302 19.265 88.9198 16.1161 84.8198 16.1161Z" fill="currentColor"/>
<path d="M100.915 16.3954H97.5559V12.9576C97.5559 12.8342 97.4564 12.7339 97.3331 12.7339H94.2813C94.1577 12.7339 94.0573 12.8342 94.0573 12.9576V16.3954H92.5898C92.4667 16.3954 92.3674 16.4959 92.3674 16.6194V19.2454C92.3674 19.3688 92.4667 19.4693 92.5898 19.4693H94.0573V26.2646C94.0573 29.0106 95.4226 30.4028 98.1151 30.4028C99.2099 30.4028 100.118 30.1765 100.974 29.6906C101.044 29.6516 101.087 29.5766 101.087 29.4968V26.996C101.087 26.9188 101.047 26.8461 100.981 26.8055C100.915 26.7638 100.832 26.7617 100.764 26.7954C100.176 27.0915 99.6074 27.2282 98.972 27.2282C97.993 27.2282 97.5559 26.7833 97.5559 25.7857V19.4693H100.915C101.038 19.4693 101.137 19.3688 101.137 19.2454V16.6194C101.137 16.4959 101.038 16.3954 100.915 16.3954Z" fill="currentColor"/>
<path d="M112.617 16.4089V15.9867C112.617 14.7445 113.092 14.1906 114.16 14.1906C114.796 14.1906 115.307 14.3171 115.879 14.5083C115.95 14.5304 116.023 14.5194 116.081 14.4771C116.14 14.4349 116.173 14.3671 116.173 14.2954V11.7205C116.173 11.622 116.11 11.535 116.015 11.5062C115.41 11.3261 114.637 11.141 113.478 11.141C110.659 11.141 109.169 12.7304 109.169 15.7355V16.3822H107.702C107.579 16.3822 107.479 16.4825 107.479 16.606V19.2455C107.479 19.3688 107.579 19.4693 107.702 19.4693H109.169V29.9507C109.169 30.0741 109.268 30.1744 109.391 30.1744H112.443C112.567 30.1744 112.667 30.0741 112.667 29.9507V19.4693H115.517L119.882 29.9479C119.387 31.0489 118.9 31.2679 118.234 31.2679C117.697 31.2679 117.13 31.1071 116.551 30.79C116.497 30.7599 116.432 30.7551 116.373 30.7732C116.315 30.794 116.266 30.8372 116.241 30.8941L115.207 33.1662C115.158 33.2735 115.2 33.3996 115.303 33.4553C116.383 34.0408 117.358 34.2908 118.563 34.2908C120.816 34.2908 122.062 33.2396 123.161 30.4121L128.456 16.7138C128.482 16.6449 128.474 16.5673 128.432 16.5059C128.39 16.4455 128.323 16.4089 128.249 16.4089H125.071C124.976 16.4089 124.891 16.4693 124.86 16.5588L121.605 25.8667L118.039 16.5526C118.007 16.466 117.924 16.4089 117.831 16.4089H112.617Z" fill="currentColor"/>
<path d="M105.833 16.3956H102.78C102.657 16.3956 102.557 16.4961 102.557 16.6195V29.9508C102.557 30.0743 102.657 30.1746 102.78 30.1746H105.833C105.956 30.1746 106.056 30.0743 106.056 29.9508V16.6195C106.056 16.4961 105.956 16.3956 105.833 16.3956Z" fill="currentColor"/>
<path d="M104.322 10.3255C103.113 10.3255 102.132 11.3056 102.132 12.5159C102.132 13.7271 103.113 14.7083 104.322 14.7083C105.531 14.7083 106.511 13.7271 106.511 12.5159C106.511 11.3056 105.531 10.3255 104.322 10.3255Z" fill="currentColor"/>
<path d="M131.186 17.7217H130.627V18.4357H131.186C131.466 18.4357 131.632 18.299 131.632 18.0785C131.632 17.8463 131.466 17.7217 131.186 17.7217ZM131.549 18.7402L132.157 19.5919H131.644L131.097 18.8107H130.627V19.5919H130.198V17.3345H131.204C131.728 17.3345 132.072 17.6029 132.072 18.0545C132.072 18.4245 131.859 18.6507 131.549 18.7402ZM131.073 16.5835C129.973 16.5835 129.14 17.4589 129.14 18.5313C129.14 19.6029 129.967 20.4668 131.062 20.4668C132.162 20.4668 132.995 19.5919 132.995 18.519C132.995 17.4473 132.168 16.5835 131.073 16.5835ZM131.062 20.6819C129.854 20.6819 128.914 19.7106 128.914 18.5313C128.914 17.3517 129.866 16.3694 131.073 16.3694C132.281 16.3694 133.221 17.3406 133.221 18.519C133.221 19.6986 132.269 20.6819 131.062 20.6819Z" fill="currentColor"/>
</svg>
