<svg width="134" height="64" viewBox="0 0 134 64" fill="none" xmlns="http://www.w3.org/2000/svg">
<path fill-rule="evenodd" clip-rule="evenodd" d="M118.566 32.6157C118.566 25.2856 115.025 19.5017 108.256 19.5017C101.459 19.5017 97.3467 25.2856 97.3467 32.5585C97.3467 41.1771 102.202 45.5293 109.17 45.5293C112.569 45.5293 115.139 44.7562 117.081 43.6682V37.9415C115.139 38.9151 112.911 39.5163 110.084 39.5163C107.314 39.5163 104.858 38.5428 104.543 35.1641H118.509C118.509 34.7919 118.566 33.3029 118.566 32.6157ZM104.458 29.8956C104.458 26.66 106.428 25.3143 108.228 25.3143C109.97 25.3143 111.826 26.66 111.826 29.8956H104.458Z" fill="#222222" fill-opacity="0.4"/>
<path fill-rule="evenodd" clip-rule="evenodd" d="M86.323 19.5017C83.5243 19.5017 81.725 20.8188 80.7255 21.7351L80.3542 19.9598H74.0713V53.3462L81.211 51.8287L81.2395 43.7254C82.2677 44.4699 83.7813 45.5293 86.2945 45.5293C91.4065 45.5293 96.0616 41.4061 96.0616 32.3294C96.033 24.0258 91.3208 19.5017 86.323 19.5017ZM84.6095 39.23C82.9245 39.23 81.925 38.6287 81.2395 37.8843L81.211 27.2613C81.9535 26.431 82.9816 25.8583 84.6095 25.8583C87.2083 25.8583 89.0075 28.7789 89.0075 32.5298C89.0075 36.3667 87.2369 39.23 84.6095 39.23Z" fill="#222222" fill-opacity="0.4"/>
<path fill-rule="evenodd" clip-rule="evenodd" d="M64.2471 17.8124L71.4153 16.2662V10.4536L64.2471 11.9712V17.8124Z" fill="#222222" fill-opacity="0.4"/>
<path d="M71.4153 19.9885H64.2471V45.0426H71.4153V19.9885Z" fill="#222222" fill-opacity="0.4"/>
<path fill-rule="evenodd" clip-rule="evenodd" d="M56.5646 22.1072L56.1077 19.9884H49.939V45.0424H57.0787V28.0629C58.7636 25.8582 61.6195 26.259 62.5048 26.574V19.9884C61.591 19.6448 58.2496 19.0148 56.5646 22.1072Z" fill="#222222" fill-opacity="0.4"/>
<path fill-rule="evenodd" clip-rule="evenodd" d="M42.2852 13.7751L35.3169 15.2641L35.2883 38.1993C35.2883 42.437 38.4584 45.5581 42.6851 45.5581C45.0269 45.5581 46.7404 45.1286 47.6829 44.6132V38.8006C46.769 39.1728 42.2567 40.49 42.2567 36.2522V26.0874H47.6829V19.9886H42.2567L42.2852 13.7751Z" fill="#222222" fill-opacity="0.4"/>
<path fill-rule="evenodd" clip-rule="evenodd" d="M22.9795 27.2613C22.9795 26.1446 23.8934 25.7151 25.407 25.7151C27.5775 25.7151 30.3191 26.3737 32.4896 27.5477V20.8188C30.1192 19.8739 27.7774 19.5017 25.407 19.5017C19.6096 19.5017 15.7542 22.5368 15.7542 27.6049C15.7542 35.5077 26.6065 34.2478 26.6065 37.6552C26.6065 38.9723 25.4641 39.4018 23.8649 39.4018C21.4945 39.4018 18.4672 38.4283 16.0683 37.1112V43.9259C18.7243 45.0712 21.4088 45.558 23.8649 45.558C29.8051 45.558 33.889 42.6087 33.889 37.4834C33.8604 28.9507 22.9795 30.4682 22.9795 27.2613Z" fill="#222222" fill-opacity="0.4"/>
</svg>
